<?xml version="1.0" encoding="utf-8"?>
<!-- Generator: Adobe Illustrator 15.0.2, SVG Export Plug-In . SVG Version: 6.00 Build 0)  -->
<!DOCTYPE svg PUBLIC "-//W3C//DTD SVG 1.1//EN" "http://www.w3.org/Graphics/SVG/1.1/DTD/svg11.dtd">
<svg version="1.1"
	 id="svg2"  xmlns:rdf="http://www.w3.org/1999/02/22-rdf-syntax-ns#" xmlns:svg="http://www.w3.org/2000/svg"
	 xmlns="http://www.w3.org/2000/svg" xmlns:xlink="http://www.w3.org/1999/xlink" x="0px" y="0px" width="45px" height="45.99px"
	 viewBox="0 -0.517 45 45.99" enable-background="new 0 -0.517 45 45.99" xml:space="preserve">
<filter  id="filter3954" color-interpolation-filters="sRGB">
	<feGaussianBlur  id="feGaussianBlur3956" stdDeviation="0.22086644"></feGaussianBlur>
</filter>
<filter  id="filter3950" color-interpolation-filters="sRGB">
	<feGaussianBlur  id="feGaussianBlur3952" stdDeviation="0.33284386"></feGaussianBlur>
</filter>
<filter  y="-0.051904388" x="-0.12890558" width="1.2578112" height="1.1038088" id="filter3946" color-interpolation-filters="sRGB">
	<feGaussianBlur  id="feGaussianBlur3948" stdDeviation="0.43201256"></feGaussianBlur>
</filter>
<filter  y="-0.11731973" x="-0.038654476" width="1.077309" height="1.2346395" id="filter3840" color-interpolation-filters="sRGB">
	<feGaussianBlur  id="feGaussianBlur3842" stdDeviation="0.52243943"></feGaussianBlur>
</filter>
<filter  id="filter3822" color-interpolation-filters="sRGB">
	<feGaussianBlur  id="feGaussianBlur3824" stdDeviation="0.48010054"></feGaussianBlur>
</filter>
<filter  y="-0.11252935" x="-0.16008291" width="1.3201658" height="1.2250587" id="filter3802" color-interpolation-filters="sRGB">
	<feGaussianBlur  id="feGaussianBlur3804" stdDeviation="0.35963158"></feGaussianBlur>
</filter>

<g id="layer1" transform="translate(-659.24268,-712.88745)">
	<g id="g3885" transform="translate(2.125,0.125)">
		<path id="path3029" fill="#D4AF91" d="M658.743,718.077c0,0,0.354-1.591,4.95-2.121
			c4.596-0.531,28.107-3.005,28.107-3.005s1.592-0.884,4.243,1.944c2.651,2.829,4.065,4.066,4.065,5.657
			c0,1.591-0.176,31.112-0.176,31.112s-0.178,1.592-4.773,2.121c-4.596,0.531-25.456,3.536-25.456,3.536s-3.005,1.061-4.773-0.707
			c-1.768-1.769-5.48-7.071-5.48-7.071L658.743,718.077z"/>
		<g>
			<defs>
				<path id="SVGID_1_" d="M658.743,718.077c0,0,0.354-1.591,4.95-2.121c4.596-0.531,28.107-3.005,28.107-3.005
					s1.592-0.884,4.243,1.944c2.651,2.829,4.065,4.066,4.065,5.657c0,1.591-0.176,31.112-0.176,31.112s-0.178,1.592-4.773,2.121
					c-4.596,0.531-25.456,3.536-25.456,3.536s-3.005,1.061-4.773-0.707c-1.768-1.769-5.48-7.071-5.48-7.071L658.743,718.077z"/>
			</defs>
			<clipPath id="SVGID_2_">
				<use xlink:href="#SVGID_1_"  overflow="visible"/>
			</clipPath>
			<g id="g3851" clip-path="url(#SVGID_2_)">
				<path id="path3040" fill="#FCD2A2" d="M692.938,712.875c-0.729-0.132-1.125,0.063-1.125,0.063
					s-23.529,2.501-28.125,3.031c-0.239,0.028-0.346,0.092-0.563,0.125c3.042,0.794,7.064,1.882,13.531,3.844
					c8.438,2.56,16.598,5.119,16.719,5.156l0,0c0,0,0.125,0.031,0.125,0.031l6.438-4.938c-0.204-1.426-1.463-2.674-3.906-5.281
					C694.706,713.492,693.667,713.008,692.938,712.875L692.938,712.875z"/>
				<path id="path3047" fill="#FFE1BB" d="M658.75,718.5
					L670,751.875l16.5-8.75l6.625-18.25c-0.121-0.037-8.031-2.378-16.469-4.938c-6.467-1.961-10.489-3.049-13.531-3.844
					c-3.949,0.601-4.375,1.969-4.375,1.969V718.5z"/>
				<path id="path3045" fill="#B8947E" d="M666.719,757.5l3.281-5.625L658.75,718.5l0.688,31.031
					c0,0,3.732,5.326,5.5,7.094C665.468,757.155,666.08,757.374,666.719,757.5z"/>
				<path id="path3052" fill="#8B6967" d="M699.594,752.125
					l-12.072-9.103l-1.021,0.103l-16.5,8.75l-3.281,5.625c1.49,0.295,2.969-0.188,2.969-0.188s20.873-3.001,25.469-3.531
					c2.718-0.313,3.745-0.899,4.25-1.406C699.528,752.253,699.513,752.235,699.594,752.125z"/>
				<path id="path3043" fill="#B48D70" d="M699.938,720.187
					l-5.375,4.031c0.088-0.285-1.643,0.436-1.531,0.657l-5.826,17.7l12.389,9.551c0.149-0.206,0.344-0.469,0.344-0.469
					s0.156-29.503,0.156-31.094C700.094,720.438,699.956,720.309,699.938,720.187L699.938,720.187z"/>
				
					<linearGradient id="path3054_1_" gradientUnits="userSpaceOnUse" x1="1333.3257" y1="-11.3025" x2="1332.2997" y2="-9.147" gradientTransform="matrix(1 0 0 -1 -654.7178 737.8022)">
					<stop  offset="0" style="stop-color:#8B6967"/>
					<stop  offset="1" style="stop-color:#FFE1BB"/>
				</linearGradient>
				<path id="path3054" fill="url(#path3054_1_)" d="M669.938,750.612
					l-1.024,3.425c7.166-3.492,14.511-7.026,19.621-9.375l-2.258-3.104L669.938,750.612z"/>
				<g id="path3064" filter="url(#filter3954)">
					
						<linearGradient id="SVGID_3_" gradientUnits="userSpaceOnUse" x1="1346.939" y1="-10.7488" x2="1348.8253" y2="-7.7916" gradientTransform="matrix(1 0 0 -1 -654.7178 737.8022)">
						<stop  offset="0" style="stop-color:#8B6967"/>
						<stop  offset="1" style="stop-color:#B48D70"/>
					</linearGradient>
					<path fill="url(#SVGID_3_)" d="M687.313,741.112l-0.591,1.413l0.739,1.421l11.074,8.982c0.822-0.233,1.688-1.048,1.371-3.316
						L687.313,741.112z"/>
				</g>
				<g id="path3926" filter="url(#filter3950)">
					
						<linearGradient id="SVGID_4_" gradientUnits="userSpaceOnUse" x1="1351.5591" y1="12.9666" x2="1349.8092" y2="16.0914" gradientTransform="matrix(1 0 0 -1 -654.7178 737.8022)">
						<stop  offset="0" style="stop-color:#B48D70"/>
						<stop  offset="1" style="stop-color:#FCD2A2"/>
					</linearGradient>
					<path fill="url(#SVGID_4_)" d="M690.875,724.237l2.375,0.875l-0.75,2.5l7.625-4.875c0,0,0.25-3.125-0.75-3.625L690.875,724.237
						z"/>
				</g>
				<g id="path3936" filter="url(#filter3946)">
					
						<linearGradient id="SVGID_5_" gradientUnits="userSpaceOnUse" x1="1345.8013" y1="2.8713" x2="1343.238" y2="3.7552" gradientTransform="matrix(1 0 0 -1 -654.7178 737.8022)">
						<stop  offset="0" style="stop-color:#B48D70"/>
						<stop  offset="1" style="stop-color:#FFE1BB"/>
					</linearGradient>
					<polygon fill="url(#SVGID_5_)" points="691.374,724.441 685.982,741.634 687.878,744.417 694.026,725.369 					"/>
				</g>
				<g id="path3020" filter="url(#filter3802)">
					
						<linearGradient id="SVGID_6_" gradientUnits="userSpaceOnUse" x1="1324.396" y1="-16.8699" x2="1321.8329" y2="-15.5442" gradientTransform="matrix(1 0 0 -1 -654.7178 737.8022)">
						<stop  offset="0" style="stop-color:#8B6967"/>
						<stop  offset="1" style="stop-color:#B8947E"/>
					</linearGradient>
					<path fill="url(#SVGID_6_)" d="M669.011,749.985l-3.8,6.895c0,0,1.029,0.688,2.532,0.775s3.081-4.531,3.081-4.531
						C670.974,752.912,670.572,749.851,669.011,749.985L669.011,749.985z"/>
				</g>
				<g id="path3808" filter="url(#filter3822)">
					
						<linearGradient id="SVGID_7_" gradientUnits="userSpaceOnUse" x1="1318.0698" y1="2.3928" x2="1319.7599" y2="2.9857" gradientTransform="matrix(1 0 0 -1 -654.7178 737.8022)">
						<stop  offset="0" style="stop-color:#B8947E"/>
						<stop  offset="1" style="stop-color:#FFE1BB"/>
					</linearGradient>
					<path fill="url(#SVGID_7_)" d="M669.453,753.257c-3.565-11.181-12.595-33.739-11.57-35.917l0.938,0.66l0.998-0.983
						l11.137,35.09L669.453,753.257z"/>
				</g>
				<g id="path3826" filter="url(#filter3840)">
					
						<linearGradient id="SVGID_8_" gradientUnits="userSpaceOnUse" x1="1331.6948" y1="16.4495" x2="1332.5073" y2="18.762" gradientTransform="matrix(1 0 0 -1 -654.7803 737.4272)">
						<stop  offset="0" style="stop-color:#FFE1BB"/>
						<stop  offset="1" style="stop-color:#FCD2A2"/>
					</linearGradient>
					<polygon fill="url(#SVGID_8_)" points="665.688,715.3 661,716.05 692.563,725.987 693.438,724.175 					"/>
				</g>
			</g>
		</g>
		<g id="g3844">
			<path id="path3001" d="M672.441,738.091l1.153-1.367c0.707,0.52,1.385,0.764,2.034,0.733
				c0.649-0.031,1.213-0.287,1.693-0.767c0.578-0.578,0.849-1.285,0.813-2.12c-0.036-0.836-0.414-1.613-1.134-2.333
				c-0.684-0.685-1.417-1.032-2.196-1.043c-0.78-0.011-1.481,0.294-2.104,0.917c-0.387,0.387-0.648,0.823-0.783,1.31
				c-0.136,0.487-0.152,0.959-0.05,1.417l-1.273,0.98l-4.073-5.967l4.86-4.86l1.147,1.146l-3.9,3.9l2.1,3.153
				c0.178-0.996,0.589-1.815,1.233-2.46c0.854-0.853,1.869-1.278,3.047-1.273c1.178,0.005,2.231,0.471,3.16,1.4
				c0.884,0.885,1.391,1.907,1.52,3.067c0.165,1.418-0.295,2.669-1.38,3.753c-0.889,0.889-1.864,1.365-2.923,1.43
				C674.324,739.171,673.343,738.833,672.441,738.091L672.441,738.091z"/>
			<path id="path3007" d="M660.607,743.871l0.767,0.012c0.206,1.024,0.444,1.79,0.714,2.297
				c0.27,0.507,0.562,0.81,0.876,0.907c0.373,0.115,0.655-0.073,0.846-0.566c0.191-0.492,0.238-1.162,0.14-2.009
				c-0.093-0.807-0.29-1.509-0.588-2.106c-0.299-0.598-0.632-0.954-0.999-1.068c-0.15-0.046-0.329-0.039-0.537,0.022l-0.09-1.516
				c0.055,0.03,0.098,0.05,0.13,0.06c0.338,0.104,0.619,0.004,0.845-0.303c0.225-0.307,0.291-0.867,0.197-1.681
				c-0.075-0.645-0.234-1.208-0.48-1.692c-0.246-0.484-0.524-0.774-0.836-0.871c-0.309-0.096-0.541,0.04-0.697,0.405
				c-0.156,0.366-0.214,0.969-0.173,1.81l-0.83-0.559c-0.04-1.147,0.076-1.992,0.345-2.533c0.269-0.541,0.659-0.732,1.17-0.574
				c0.353,0.109,0.697,0.377,1.032,0.805s0.616,0.955,0.84,1.583c0.224,0.628,0.374,1.268,0.449,1.918
				c0.071,0.618,0.062,1.158-0.03,1.619s-0.267,0.796-0.526,1.004c0.405,0.314,0.749,0.811,1.031,1.492
				c0.283,0.68,0.477,1.482,0.584,2.406c0.145,1.25,0.061,2.246-0.25,2.986c-0.311,0.742-0.781,1.015-1.41,0.82
				c-0.567-0.176-1.082-0.696-1.543-1.561C661.124,746.114,660.798,745.079,660.607,743.871L660.607,743.871z"/>
			<path id="path3009" d="
				M677.373,716.684c-0.183,0.056-0.371,0.11-0.525,0.174c-0.614,0.258-0.925,0.552-0.976,0.873
				c-0.071,0.445,0.346,0.826,1.308,1.137c0.961,0.311,2.291,0.477,3.945,0.501c1.604,0.024,2.904-0.101,3.929-0.37
				c1.024-0.269,1.563-0.612,1.628-1.021c0.039-0.245-0.102-0.472-0.465-0.688c-0.363-0.216-0.867-0.382-1.486-0.513
				c0.178,0.001,0.303-0.003,0.393-0.003c0.83,0.012,1.645,0.059,2.436,0.131c0.793,0.073,1.438,0.153,1.896,0.25
				c0.456,0.097,0.78,0.219,1.04,0.364c0.259,0.145,0.368,0.31,0.338,0.496c-0.033,0.218-0.229,0.396-0.66,0.529
				c-0.43,0.133-1.114,0.219-2.027,0.255l0.09,0.58c1.292-0.031,2.297-0.164,3.045-0.399s1.158-0.538,1.221-0.925
				c0.058-0.364-0.211-0.69-0.813-0.971c-0.602-0.281-1.505-0.503-2.719-0.658c-1.213-0.155-2.865-0.24-4.949-0.271
				c-2.004-0.029-3.545,0.016-4.624,0.138C678.587,716.385,677.921,716.515,677.373,716.684L677.373,716.684z M678.651,717.028
				c0.705-0.176,1.632-0.253,2.783-0.236s2.021,0.125,2.643,0.316c0.62,0.191,0.9,0.421,0.854,0.702
				c-0.044,0.279-0.397,0.509-1.077,0.689c-0.68,0.181-1.512,0.263-2.55,0.248c-1.157-0.017-2.126-0.132-2.821-0.343
				c-0.695-0.211-1-0.449-0.957-0.719C677.568,717.424,677.946,717.204,678.651,717.028L678.651,717.028z M694.032,717.073
				l-0.44,2.561l1.175,0.009l0.439-2.544L694.032,717.073L694.032,717.073z"/>
			<path id="path3005" d="M680.678,752.348c-0.248,0.325-0.607,0.573-1.08,0.744
				c-0.473,0.172-1.042,0.271-1.707,0.298c-1.005,0.041-1.854-0.086-2.549-0.381c-0.694-0.295-1.05-0.711-1.067-1.247
				c-0.017-0.539,0.32-0.987,1.009-1.344c0.69-0.357,1.538-0.557,2.542-0.598c0.641-0.026,1.2,0.025,1.679,0.156
				s0.851,0.345,1.118,0.641c0.266-0.391,0.701-0.697,1.311-0.921c0.609-0.223,1.342-0.353,2.195-0.387
				c1.181-0.048,2.179,0.099,2.994,0.438c0.815,0.341,1.232,0.816,1.252,1.425c0.02,0.609-0.369,1.117-1.164,1.524
				c-0.796,0.406-1.797,0.634-3.002,0.684c-0.898,0.036-1.652-0.035-2.266-0.214C681.333,752.989,680.911,752.716,680.678,752.348
				L680.678,752.348z M677.81,752.618c0.653-0.027,1.184-0.143,1.592-0.348s0.608-0.458,0.599-0.759
				c-0.009-0.292-0.223-0.522-0.64-0.692c-0.417-0.17-0.924-0.243-1.521-0.219c-0.622,0.025-1.142,0.143-1.559,0.353
				c-0.418,0.21-0.623,0.458-0.613,0.744c0.009,0.289,0.224,0.521,0.644,0.694C676.733,752.566,677.232,752.641,677.81,752.618z
				 M684.194,752.601c0.484-0.02,0.951-0.091,1.399-0.211c0.448-0.121,0.794-0.288,1.036-0.5c0.241-0.212,0.359-0.435,0.352-0.668
				c-0.012-0.362-0.281-0.65-0.811-0.865c-0.527-0.215-1.194-0.306-1.998-0.272c-0.816,0.033-1.488,0.182-2.014,0.447
				c-0.525,0.265-0.783,0.579-0.771,0.944c0.011,0.356,0.283,0.642,0.818,0.854S683.403,752.634,684.194,752.601L684.194,752.601z"
				/>
			<path id="path3019" d="M695.407,729.312c-0.006,0,0.004,0.031,0,0.031
				c-0.006,0.001-0.027,0-0.031,0c-0.011,0.001-0.021,0.001-0.031,0c-0.002,0-0.029-0.002-0.031,0c-0.006,0.004-0.026-0.004-0.031,0
				c-0.006,0.004,0.005,0.027,0,0.031c-0.006,0.004-0.026-0.004-0.031,0c-0.006,0.005,0.005,0.026,0,0.031
				c-0.006,0.005-0.027-0.005-0.031,0s0.004,0.026,0,0.031c-0.01,0.001-0.021,0.001-0.031,0l-4,3.969
				c-0.005,0.005,0.005,0.026,0,0.031c-0.005,0.006-0.027,0.025-0.031,0.031s-0.027,0.025-0.031,0.031
				c-0.003,0.007,0.003,0.024,0,0.031s0.002,0.024,0,0.031c-0.002,0.007-0.029-0.007-0.031,0c-0.002,0.007,0.002,0.024,0,0.031
				c-0.001,0.007,0.001,0.024,0,0.031c0,0.007,0,0.024,0,0.031c0,0.007,0,0.024,0,0.031c0.001,0.007-0.001,0.024,0,0.031
				c0.001,0.007-0.002,0.024,0,0.031c0.002,0.007,0.029,0.024,0.031,0.031l0.406,1.25c0.003,0.006-0.003,0.025,0,0.031
				c0.003,0.006,0.027,0.026,0.031,0.031c0.004,0.005-0.004,0.026,0,0.031s0.027-0.005,0.031,0c0.005,0.005-0.005,0.026,0,0.031
				s0.025-0.004,0.031,0c0.005,0.004-0.006,0.027,0,0.031c0.005,0.004,0.025-0.004,0.031,0c0.006,0.003,0.025-0.003,0.031,0
				s-0.006,0.028,0,0.031s0.025-0.003,0.031,0c0.006,0.002,0.024-0.002,0.031,0c0.006,0.002-0.008,0.03,0,0.031
				c0.007,0.002,0.024-0.001,0.031,0c0.006,0.001,0.023-0.001,0.031,0c0.006,0,0.023,0,0.031,0c0.006,0,0.023,0,0.031,0
				c0.006-0.001,0.023,0.001,0.031,0c0.006-0.001,0.023-0.03,0.031-0.031c0.006-0.002,0.023,0.002,0.03,0
				c0.007-0.003,0.025,0.003,0.031,0c0.007-0.003-0.006-0.028,0-0.031c0.007-0.003,0.026,0.004,0.031,0s0.026,0.004,0.031,0
				s-0.005-0.027,0-0.031c0.005-0.005,0.026,0.005,0.031,0l1.969-1.969c-0.001-0.01-0.001-0.021,0-0.031
				c0.011-0.001,0.021-0.001,0.031,0c0.009-0.012,0.019-0.022,0.031-0.031c0.011-0.001,0.021-0.001,0.03,0
				c0.012-0.001,0.021-0.001,0.031,0c0.013,0.009,0.023,0.02,0.031,0.031c0.012-0.001,0.021-0.001,0.031,0
				c0.012,0.009,0.023,0.02,0.031,0.031c0.002,0.01,0.002,0.021,0,0.031c0.012,0.009,0.023,0.019,0.031,0.031
				c0.002,0.01,0.002,0.021,0,0.031c0.002,0.01,0.002,0.021,0,0.031c-0.061,0.379-0.123,0.857-0.313,1.75
				c-0.273,1.312-0.48,2.311-0.563,3s-0.1,1.284-0.063,1.813c0.037,0.518,0.098,0.982,0.25,1.438
				c0.295,0.876,0.793,1.545,1.438,1.813c0.328,0.136,0.686,0.12,1.031,0c0.348-0.121,0.686-0.344,1-0.656
				c0.626-0.622,1.01-1.41,1.188-2.313c0.18-0.908,0.101-1.896-0.188-2.969c-0.002-0.006,0.002-0.025,0-0.031s0.004-0.025,0-0.031
				c-0.002-0.006-0.027-0.025-0.031-0.031s0.004-0.025,0-0.031c-0.004-0.005-0.027,0.005-0.031,0s0.004-0.026,0-0.031
				s-0.025,0.005-0.031,0c-0.004-0.005,0.006-0.026,0-0.031c-0.004-0.004-0.025,0.004-0.031,0c-0.004-0.004,0.007-0.027,0-0.031
				c-0.006-0.004-0.025,0.003-0.031,0s-0.024,0.003-0.03,0c-0.007-0.003,0.006-0.028,0-0.031c-0.007-0.002-0.025,0.002-0.031,0
				c-0.007-0.002-0.024,0.002-0.031,0c-0.007-0.001-0.024,0.001-0.031,0c-0.007,0-0.024,0-0.031,0c-0.001,0-0.028,0-0.031,0
				c-0.007,0.001-0.024,0-0.031,0c-0.007,0.001-0.024-0.001-0.03,0c-0.007,0.002-0.025-0.002-0.031,0
				c-0.007,0.002-0.025-0.003-0.031,0c-0.006,0.004,0.006,0.029,0,0.031c-0.006,0.003-0.025-0.003-0.031,0
				c-0.006,0.004-0.026-0.004-0.031,0c-0.006,0.004,0.004,0.027,0,0.031l-0.813,0.625c-0.004,0.003-0.029-0.003-0.031,0
				c-0.004,0.003,0.002,0.028,0,0.031c-0.004,0.003-0.029-0.003-0.031,0c-0.004,0.003,0.002,0.027,0,0.031s-0.029-0.004-0.031,0
				s0.002,0.027,0,0.031s0.002,0.027,0,0.031s-0.029-0.004-0.031,0s0,0.027,0,0.031c-0.002,0.004,0,0.027,0,0.031
				c-0.001,0.004,0,0.027,0,0.031s0,0.027,0,0.031s0,0.026,0,0.031c0,0.004,0,0.026,0,0.031c0,0.004-0.001,0.026,0,0.031
				c0,0.004-0.002,0.027,0,0.031c0.012,0.008,0.021,0.019,0.031,0.031c0.203,0.615,0.236,1.168,0.156,1.688
				c-0.082,0.525-0.266,0.893-0.563,1.188c-0.133,0.131-0.229,0.223-0.344,0.25c-0.117,0.026-0.207-0.031-0.281-0.063
				c-0.105-0.045-0.22-0.105-0.313-0.219c-0.094-0.114-0.145-0.249-0.219-0.469c-0.14-0.416-0.204-1.036-0.156-1.781
				c0.047-0.731,0.218-1.896,0.563-3.469c0.226-1.029,0.396-1.873,0.469-2.563c0.072-0.681,0.086-1.348,0.031-1.938
				c-0.004-0.038-0.002-0.049,0-0.031c-0.037-0.365-0.102-0.706-0.219-1.031c-0.012-0.009-0.023-0.02-0.031-0.031
				c-0.002-0.005,0.002-0.027,0-0.031c-0.002-0.004,0.002-0.027,0-0.031c-0.002-0.004-0.029,0.004-0.031,0
				c-0.004-0.004,0.003-0.027,0-0.031c-0.004-0.004-0.028,0.004-0.031,0c-0.004-0.004,0.003-0.027,0-0.031
				c-0.004-0.003-0.027-0.028-0.031-0.031c-0.004-0.003-0.027,0.003-0.031,0c-0.004-0.003,0.004-0.029,0-0.031
				c-0.004-0.003-0.027,0.002-0.031,0s-0.027-0.029-0.031-0.031c-0.005-0.002-0.026,0.002-0.031,0c-0.005-0.001-0.026,0.001-0.031,0
				s-0.026,0-0.031,0s-0.026-0.031-0.031-0.031S695.413,729.311,695.407,729.312L695.407,729.312z"/>
		</g>
	</g>
</g>
</svg>
